<svg width="301" height="229" viewBox="0 0 301 229" fill="none" xmlns="http://www.w3.org/2000/svg">
<path d="M44.9175 55.2643C15.7361 80.4018 -1.5284 118.248 11.1477 157.861C27.1413 207.889 105.574 225.995 134.063 225.467C171.909 224.757 264.273 215.861 292.86 133.763C304.034 101.661 303.11 60.0013 282.891 31.2326C252.191 -12.4899 183.001 -1.28283 138.948 11.1622C114.52 18.0614 88.739 27.783 66.4899 40.1949C58.8149 44.4698 51.5526 49.5369 44.9175 55.2643Z" fill="#F2F2F2"/>
<path d="M126.998 111.382C127.675 113.066 130.151 112.703 130.283 110.887L132.544 78.6357C132.544 78.6357 134.162 67.082 122.624 63.6159C111.071 60.1498 24.4839 36.4812 24.4839 36.4812C24.4839 36.4812 7.68154 32.4374 4.21543 49.768C0.749326 67.0985 1.47556 62.0479 1.47556 62.0479C1.47556 62.0479 -3.16243 80.2697 10.1243 82.7455C23.4111 85.2213 115.478 99.746 115.478 99.746C115.478 99.746 122.641 100.406 126.998 111.382Z" fill="#FDC33B"/>
<path d="M246.414 182.454C246.266 182.454 246.117 182.421 245.968 182.338C237.221 177.486 219.676 165.932 219.494 165.817C219.081 165.487 211.67 159.099 207.098 147.859C202.18 135.777 191.187 128.515 191.072 128.449C190.824 128.284 190.676 128.02 190.659 127.722C190.643 127.425 190.775 127.145 191.006 126.963L196.915 122.21L195.677 121.137C189.454 113.264 189.603 107.949 189.735 103.262C189.801 101.033 189.867 98.9372 189.223 96.7586C186.104 85.9806 178.297 84.6437 173.131 83.7359C165.637 82.4485 158.028 87.0039 154.678 94.8439C154.133 96.1148 153.77 97.5508 153.555 99.2013C153.489 99.812 153.489 100.472 153.489 101.132C153.489 102.073 153.506 103.031 153.308 103.955C153.291 104.004 153.275 104.07 153.275 104.136C153.143 104.632 152.664 104.929 152.169 104.813C152.086 104.797 152.02 104.764 151.938 104.731C151.443 104.516 147.481 103.014 145.336 102.205C144.18 101.76 143.273 101.43 143.058 101.331C140.252 100.225 136.918 99.0363 133.485 98.5741C131.092 98.244 127.659 98.046 125.513 99.9111C124.473 100.835 123.796 102.222 123.516 104.087C125.43 104.764 127.477 105.589 129.111 107.074C131.966 109.649 131.9 113.974 131.851 117.44C131.834 118.265 131.818 119.074 131.851 119.8C131.851 119.981 131.867 120.196 131.884 120.427C131.999 121.946 132.181 124.487 130.019 125.214C128.781 125.643 127.477 124.917 126.454 123.25C123.681 118.711 121.997 113.495 121.585 108.197C121.502 107.19 121.486 106.249 121.535 105.374C119.059 104.549 116.336 103.889 113.018 103.311C111.896 103.113 110.774 102.932 109.651 102.799C106.053 102.288 21.7442 90.1895 9.01862 86.3932C-4.10308 82.498 0.155285 63.5829 2.97769 51.0719L3.3243 49.5534C4.21558 45.5922 6.06418 42.7698 8.85357 41.1688C13.3595 38.5774 18.5752 40.1784 18.8063 40.2445C19.1529 40.3105 60.4986 49.7845 78.7864 55.3633C91.9246 59.3741 115.049 65.4645 127.659 68.7326C127.824 68.7821 136.538 72.0171 135.598 81.6727L134.706 90.7341C134.657 91.2458 134.195 91.5924 133.7 91.5594C133.188 91.5099 132.825 91.0642 132.874 90.5526L133.766 81.4912C134.558 73.288 127.428 70.5977 127.114 70.4821C114.57 67.2306 91.3965 61.1402 78.2418 57.1129C60.0199 51.5506 18.7402 42.0931 18.3111 42.0105C18.1956 41.9775 13.5411 40.5746 9.76136 42.7533C7.45062 44.0902 5.89912 46.5165 5.12337 49.9496L4.77676 51.4681C2.10291 63.3189 -1.92438 81.2106 9.54679 84.6107C22.1568 88.3574 109.024 100.819 109.899 100.951C111.038 101.083 112.193 101.281 113.348 101.479C116.584 102.057 119.29 102.7 121.75 103.493C122.129 101.347 122.988 99.68 124.292 98.5246C126.998 96.1479 130.976 96.3789 133.716 96.742C137.347 97.2372 140.813 98.4751 143.718 99.614C143.933 99.6965 144.824 100.043 145.979 100.472C148.785 101.529 150.535 102.205 151.624 102.667C151.657 102.189 151.657 101.677 151.657 101.149C151.657 100.406 151.657 99.6635 151.74 98.9868C151.971 97.1547 152.367 95.5537 152.994 94.1177C156.691 85.4854 165.126 80.4843 173.461 81.9203C178.742 82.8281 187.556 84.3631 191.006 96.2304C191.716 98.6897 191.65 100.934 191.584 103.295C191.451 107.883 191.319 112.62 197.014 119.849L198.961 121.533C199.159 121.715 199.275 121.979 199.275 122.243C199.275 122.507 199.143 122.771 198.928 122.936L193.119 127.64C196.073 129.802 204.524 136.652 208.815 147.182C213.205 157.977 220.534 164.298 220.6 164.364C220.682 164.414 238.161 175.918 246.86 180.737C247.305 180.985 247.47 181.546 247.223 181.992C247.058 182.289 246.744 182.454 246.414 182.454ZM123.367 106.002C123.351 106.645 123.367 107.322 123.433 108.048C123.829 113.066 125.414 118.001 128.038 122.292C128.533 123.101 129.095 123.58 129.441 123.481C130.184 123.233 130.151 121.962 130.052 120.576C130.035 120.328 130.019 120.097 130.002 119.882C129.969 119.123 129.986 118.281 130.002 117.423C130.052 114.155 130.118 110.458 127.873 108.444C126.619 107.322 124.968 106.596 123.367 106.002Z" fill="#E03C31"/>
<path d="M100.359 135.463C97.9161 135.463 95.9189 133.466 95.9189 131.024C95.9189 128.581 97.9161 126.584 100.359 126.584C102.802 126.584 104.799 128.581 104.799 131.024C104.799 133.466 102.802 135.463 100.359 135.463ZM100.359 127.574C98.4608 127.574 96.8928 129.125 96.8928 131.04C96.8928 132.955 98.4442 134.506 100.359 134.506C102.273 134.506 103.825 132.955 103.825 131.04C103.825 129.125 102.257 127.574 100.359 127.574Z" fill="#151515"/>
<path d="M162.633 128.498C162.633 128.498 165.027 127.079 159.365 117.308C153.72 107.52 151.641 95.24 162.633 88.0602C173.626 80.8804 187.507 90.1233 187.424 100.01C187.309 111.696 190.23 119.041 195.231 122.078C195.231 122.078 182.374 133.301 178.033 126.352C178.033 126.352 176.135 129.356 175.804 129.356C175.474 129.373 167.42 133.615 162.633 128.498Z" fill="#864B40"/>
<path d="M154.051 132.954C154.051 132.954 157.748 129.918 164.053 128.383C170.358 126.864 168.509 119.14 168.509 119.14C168.509 119.14 160.9 121.318 160.24 110.986C159.58 100.654 162.419 98.4914 166.974 97.2866C166.974 97.2866 169.797 106.744 175.672 105.556C175.738 107.305 175.805 109.071 175.854 110.821C175.904 112.158 175.953 113.495 176.003 114.815C176.118 117.836 177.092 120.592 179.452 122.639V127.508C179.452 127.508 195.644 129.175 203.121 145.499L179.848 153.504L154.051 132.954Z" fill="#ECC9BE"/>
<path d="M160.966 129.059C160.966 129.059 155.107 129.835 151.525 136.536C147.944 143.221 145.138 163.77 145.138 163.77L161.775 164.397L160.966 129.059Z" fill="#B4382E"/>
<path d="M160.966 129.059C160.966 129.059 167.601 145.202 187.012 129.703C187.012 129.703 198.516 133.714 205.828 149.74C205.828 149.74 208.237 157.613 215.549 164.364C222.861 171.115 218.586 172.303 212.364 177.898H193.383L200.694 170.9C200.694 170.9 196.964 166.691 194.621 162.961C192.293 159.231 191.501 160.155 191.352 164.678C191.204 169.184 192.442 175.258 192.442 175.258H153.902C153.902 175.258 154.315 167.632 152.45 162.813C150.584 157.993 144.973 153.042 146.689 149.608C148.406 146.192 150.139 139.177 151.525 136.503C155.024 129.802 160.966 129.059 160.966 129.059Z" fill="#E03C31"/>
<path d="M161.428 111.366C158.985 111.366 156.988 109.369 156.988 106.926C156.988 104.483 158.985 102.486 161.428 102.486C163.871 102.486 165.868 104.483 165.868 106.926C165.868 109.369 163.871 111.366 161.428 111.366ZM161.428 103.46C159.53 103.46 157.962 105.011 157.962 106.909C157.962 108.807 159.514 110.375 161.428 110.375C163.343 110.375 164.894 108.824 164.894 106.909C164.894 104.995 163.343 103.46 161.428 103.46Z" fill="#151515"/>
<path d="M171.464 111.366C169.021 111.366 167.024 109.369 167.024 106.926C167.024 104.483 169.021 102.486 171.464 102.486C173.906 102.486 175.904 104.483 175.904 106.926C175.904 109.369 173.923 111.366 171.464 111.366ZM171.464 103.46C169.565 103.46 168.014 105.011 168.014 106.909C168.014 108.807 169.565 110.375 171.464 110.375C173.362 110.375 174.93 108.824 174.93 106.909C174.93 104.995 173.378 103.46 171.464 103.46Z" fill="#151515"/>
<path d="M167.519 106.431H165.373V107.404H167.519V106.431Z" fill="#151515"/>
<path d="M205.481 110.574C205.498 106.579 205.514 105.936 205.597 101.941C205.762 93.7877 209.987 83.6204 221.425 82.6631C232.863 81.7058 265.956 79.131 265.956 79.131C265.956 79.131 273.796 78.3222 273.565 88.1263C273.334 97.9305 273.351 95.2071 273.351 95.2071C273.351 95.2071 273.252 106.117 259.338 104.929C248.675 104.021 229.199 104.5 220.682 104.78C217.117 104.896 213.882 107.504 211.373 109.814C210.102 110.986 208.914 112.241 207.792 113.561C207.297 114.122 206.884 114.749 206.405 115.344C206.207 115.575 205.448 115.707 205.448 114.733C205.481 112.109 205.464 111.151 205.481 110.574Z" fill="#CCCCCC"/>
<path d="M133.155 144.558L140.83 176.347C141.061 177.288 141.886 177.948 142.86 177.948H190.692C191.897 177.948 192.854 176.925 192.772 175.72L190.61 143.931C190.527 142.841 189.619 141.983 188.53 141.983H135.185C133.831 141.983 132.841 143.237 133.155 144.558Z" fill="#727373"/>
<path d="M133.155 145.201L140.681 176.363C140.896 177.288 141.721 177.931 142.662 177.931H189.57C190.758 177.931 191.683 176.925 191.617 175.753L189.487 144.591C189.421 143.518 188.53 142.693 187.441 142.693H135.135C133.815 142.676 132.841 143.914 133.155 145.201Z" fill="#959595"/>
<path d="M80.3872 169.002H246.793L193.845 225.038H65.3179L80.3872 169.002Z" fill="#515050"/>
<path d="M244.169 153.355C244.169 153.355 235.355 154.511 237.27 145.119C239.185 135.728 243.707 131.519 240.588 126.336C237.468 121.153 233.639 115.41 220.979 118.281C208.32 121.153 212.925 130.545 212.925 133.037C212.925 135.529 209.095 138.22 209.095 138.22L212.165 141.471C212.165 141.471 210.829 148.948 213.898 149.13C216.968 149.328 223.868 149.328 224.445 154.874C225.023 160.436 221.573 162.152 217.546 164.843C213.519 167.533 240.158 171.362 240.538 170.587C240.918 169.827 244.169 153.355 244.169 153.355Z" fill="#F6956B"/>
<path d="M240.538 146.439C240.538 146.439 231.906 148.073 227.499 144.096L225.007 140.696C225.007 140.696 228.258 137.048 228.836 133.796C229.413 130.545 225.007 128.812 223.092 133.796C221.177 138.781 221.177 138.781 221.177 138.781C221.177 138.781 218.883 139.821 218.883 138.731C218.883 137.642 222.333 130.347 220.798 129.208C219.263 128.053 213.7 128.449 211.208 123.844L209.095 120.774C209.095 120.774 217.53 112.917 229.034 113.874C240.538 114.832 243.79 119.239 243.41 127.475C243.03 135.711 237.088 141.471 240.538 146.439Z" fill="#515050"/>
<path d="M186.615 223.882C186.615 223.882 193.597 224.493 195.413 211.751C197.228 199.009 191.468 186.283 195.413 179.615C199.357 172.947 208.749 166.873 214.509 163.242C220.27 159.611 222.712 157.613 222.712 157.613C222.712 157.613 237.864 163.39 241.611 153.256C241.611 153.256 257.538 152.959 263.992 163.654C270.446 174.35 274.819 195.724 271.337 216.323C271.353 216.306 217.893 237.565 186.615 223.882Z" fill="#CCCCCC"/>
<path d="M164.168 206.486L105.442 204.868C103.66 204.819 102.389 203.135 102.818 201.418L112.127 164.067C112.424 162.846 113.513 161.987 114.768 161.954L170.556 160.882C172.289 160.848 173.626 162.383 173.362 164.1L166.99 204.142C166.759 205.512 165.555 206.519 164.168 206.486Z" fill="#151515"/>
<path d="M162.072 204.654L108.067 203.152C106.433 203.102 105.261 201.567 105.657 199.983L114.223 165.635C114.504 164.513 115.494 163.72 116.649 163.704L167.964 162.714C169.549 162.681 170.787 164.1 170.539 165.668L164.68 202.491C164.465 203.762 163.343 204.687 162.072 204.654Z" fill="#E9F5F8"/>
<path d="M45.3466 225.021V216.653C45.3466 216.653 40.9067 220.598 36.7143 220.829C32.5385 221.06 23.015 215.481 24.6325 209.902C26.2665 204.323 32.3074 192.01 36.2522 184.814C40.197 177.618 44.3893 163.209 52.5099 159.957C60.6305 156.706 76.9047 154.841 86.1972 155.55C95.4897 156.26 106.416 155.55 109.668 168.556C112.919 181.563 113.612 195.972 116.864 201.782C120.116 207.591 134.525 204.34 135.218 204.34C135.911 204.34 147.993 201.551 147.993 201.551L154.034 208.747C154.034 208.747 127.312 225.236 123.136 225.005C118.96 224.773 103.396 227.332 98.048 209.671V225.021H45.3466Z" fill="#CCCCCC"/>
<g opacity="0.4">
<g opacity="0.4">
<path opacity="0.4" d="M44.8678 225.021V216.851C44.8678 216.851 40.5269 220.713 36.4501 220.928C32.3733 221.142 23.0644 215.712 24.6489 210.265C26.2334 204.819 32.1423 192.786 35.988 185.755C39.8337 178.724 43.927 164.661 51.8661 161.476C59.8051 158.29 75.6832 156.491 84.7611 157.168C93.839 157.845 104.501 157.168 107.67 169.877C110.839 182.586 111.533 196.648 114.702 202.326C117.871 208.004 131.95 204.819 132.626 204.819C133.303 204.819 147.993 201.551 147.993 201.551L154.034 208.747C154.034 208.747 126.239 226.721 120.825 225.005C116.93 223.767 103.264 226.919 98.0479 209.671V225.021H44.8678Z" fill="#515050"/>
</g>
</g>
<path d="M58.0557 180.044C58.0557 180.044 55.6954 179.318 51.173 176.05C46.634 172.782 42.6562 165.536 47.7234 159.561C52.807 153.586 56.7847 153.042 58.0557 145.779C59.3266 138.517 58.2372 140.167 63.5024 133.994C68.7676 127.838 66.5889 123.117 73.6532 116.598C80.7174 110.078 90.8682 105.721 96.8596 114.782C102.834 123.844 101.217 127.112 101.943 133.087C102.669 139.062 97.2227 143.056 98.1305 149.757C99.0383 156.458 105.376 161.542 97.2227 168.243C89.0691 174.944 83.2592 170.058 78.0105 177.486C72.7289 184.946 58.0557 180.044 58.0557 180.044Z" fill="#515050"/>
<path d="M148.01 201.567C148.01 201.567 151.393 198.794 154.05 197.094C156.708 195.394 158.507 194.684 160.289 194.684C162.072 194.684 163.244 194.684 163.244 194.684C163.244 194.684 162.617 196.12 161.016 196.566C159.415 197.012 157.087 198.613 157.087 198.613C157.087 198.613 167.007 196.731 168.872 198.117C170.754 199.504 173.065 204.406 173.065 204.406C173.065 204.406 168.096 206.75 154.05 208.747L148.01 201.567Z" fill="#F6956B"/>
<path d="M107.423 78.8833C107.241 78.8833 107.043 78.8668 106.845 78.8173L19.4827 58.1857C18.1458 57.8721 17.3205 56.5352 17.6341 55.2148C17.9477 53.8943 19.2847 53.0526 20.6051 53.3662L107.968 73.9978C109.304 74.3114 110.13 75.6483 109.816 76.9687C109.569 78.1076 108.545 78.8833 107.423 78.8833Z" fill="#FEE7B1"/>
<path d="M76.8056 81.5903C76.624 81.5903 76.459 81.5738 76.2774 81.5243L16.8914 68.5016C15.5545 68.2045 14.7127 66.8841 15.0098 65.5471C15.3069 64.2102 16.6108 63.3519 17.9643 63.6655L77.3503 76.6882C78.6872 76.9853 79.529 78.3057 79.2319 79.6427C78.9678 80.8145 77.9445 81.5903 76.8056 81.5903Z" fill="#FEE7B1"/>
</svg>
